<svg xmlns="http://www.w3.org/2000/svg" version="1.1" width="1280" height="1120">
<path d="M0 0 C22.73 -0.05 45.46 -0.08 68.19 -0.1 C78.75 -0.11 89.3 -0.13 99.85 -0.15 C109.05 -0.17 118.25 -0.18 127.45 -0.19 C132.32 -0.19 137.19 -0.2 142.06 -0.21 C146.65 -0.23 151.23 -0.23 155.81 -0.23 C157.5 -0.23 159.18 -0.23 160.86 -0.24 C163.16 -0.25 165.46 -0.25 167.76 -0.24 C169.04 -0.24 170.33 -0.24 171.65 -0.25 C174.9 -0.01 177.07 0.64 180 2 C182.21 2.48 182.21 2.48 184.43 2.75 C185.25 2.86 186.06 2.98 186.9 3.1 C188.59 3.32 190.27 3.55 191.96 3.77 C196.91 4.48 200.54 5.65 205 8 C208.03 8.62 211.03 9 214.1 9.38 C217.28 10.06 219.24 11.31 222 13 C224.04 13.61 226.11 14.15 228.19 14.62 C233.85 15.92 233.85 15.92 236 17 C236 17.66 236 18.32 236 19 C236.64 19.03 237.28 19.05 237.94 19.08 C243.23 19.42 246.8 20.11 251.21 23.02 C253.98 24.53 256.89 24.93 259.98 25.41 C262 26 262 26 263.46 27.46 C265.47 29.47 267.21 29.81 269.94 30.5 C273.69 31.45 275.94 32.67 279 35 C281.31 35.91 281.31 35.91 283.69 36.56 C286.07 37.25 286.07 37.25 288 38 C288.33 38.66 288.66 39.32 289 40 C291.29 40.84 293.61 41.47 295.97 42.12 C296.64 42.41 297.31 42.7 298 43 C298.33 43.99 298.66 44.98 299 46 C300.22 46.08 301.43 46.16 302.69 46.25 C306.87 46.76 308.8 48.21 312 51 C313.21 51.58 314.44 52.12 315.69 52.62 C319 54 319 54 321 56 C323.05 56.8 325.12 57.46 327.22 58.12 C327.81 58.41 328.4 58.7 329 59 C329.33 59.99 329.66 60.98 330 62 C330.93 62.1 331.86 62.21 332.81 62.31 C336.32 63.07 336.61 63.61 339 66 C341.26 67.2 341.26 67.2 343.69 68.19 C344.5 68.53 345.3 68.88 346.14 69.23 C346.75 69.48 347.37 69.74 348 70 C348 70.66 348 71.32 348 72 C348.64 72.19 349.28 72.39 349.93 72.59 C351.17 72.98 351.17 72.98 352.44 73.38 C353.26 73.63 354.08 73.89 354.93 74.15 C357 75 357 75 358 77 C360.11 78.13 360.11 78.13 362.56 79.12 C363.39 79.48 364.22 79.83 365.07 80.2 C365.7 80.46 366.34 80.73 367 81 C367 81.66 367 82.32 367 83 C368.55 83.37 368.55 83.37 370.12 83.75 C373.94 84.83 376.77 86.7 380 89 C381.14 89.56 381.14 89.56 382.31 90.12 C384 91 384 91 385 93 C386.81 94.05 386.81 94.05 388.94 95 C391.49 96.18 392.99 96.99 395 99 C399.03 99.9 402.9 100.13 407.02 100.14 C408.2 100.14 409.39 100.15 410.61 100.15 C411.89 100.16 413.17 100.16 414.5 100.16 C415.87 100.16 417.25 100.17 418.63 100.17 C421.59 100.18 424.54 100.19 427.5 100.2 C432.18 100.21 436.87 100.23 441.55 100.25 C454.86 100.31 468.17 100.37 481.48 100.4 C488.84 100.42 496.2 100.45 503.56 100.49 C507.45 100.51 511.34 100.53 515.22 100.53 C518.88 100.53 522.54 100.55 526.2 100.57 C528.18 100.58 530.15 100.58 532.12 100.57 C538.84 100.64 543.88 101.22 550 104 C552.83 104.58 555.63 104.98 558.48 105.38 C561.31 106.08 562.75 107.2 565 109 C566.94 109.71 568.88 110.42 570.83 111.12 C574.46 112.59 578.05 114.4 581 117 C581.72 119.16 581.72 119.16 582 121 C582.84 121.09 582.84 121.09 583.69 121.19 C589.83 123.34 592.85 129.71 596 135 C596.66 135.99 597.32 136.98 598 138 C598.5 139.92 598.99 141.84 599.43 143.77 C600.01 146.05 600.79 148.17 601.62 150.38 C604.22 158.03 603.4 165.4 601 173 C600.34 173.99 599.68 174.98 599 176 C598.71 177.28 598.42 178.56 598.12 179.88 C597.22 183.77 595.68 185.99 593 189 C592.46 189.93 591.93 190.86 591.38 191.81 C590.69 192.9 590.69 192.9 590 194 C589.34 194 588.68 194 588 194 C587.81 194.7 587.63 195.4 587.44 196.12 C585.48 200.04 582.59 202.53 579 205 C578.34 205 577.68 205 577 205 C576.75 205.62 576.5 206.24 576.25 206.88 C574.77 209.4 573.59 209.79 571 211 C570.34 211.99 569.68 212.98 569 214 C566.67 215.02 564.34 216.01 562 217 C561.5 217.5 561.01 217.99 560.5 218.5 C558.12 220.88 555.08 221.73 552 223 C550.33 223.99 548.66 224.99 547 226 C546.11 226.35 545.23 226.7 544.31 227.06 C541.86 227.88 541.86 227.88 540 230 C538.12 230.54 536.22 231.01 534.31 231.44 C530.82 232.26 527.89 233.05 524.62 234.56 C519.93 236.43 515.33 236.84 510.34 237.46 C507.59 237.91 505.66 238.4 503.19 239.56 C489.36 245.27 469.79 242.15 455.02 242.13 C451.55 242.12 448.08 242.13 444.61 242.13 C432.99 242.15 421.37 242.16 409.76 241.73 C409.08 241.71 408.41 241.68 407.72 241.66 C404.56 241.54 401.39 241.41 398.23 241.26 C386.04 240.59 386.04 240.59 374 242 C372.68 243.94 372.68 243.94 372 246 C370.67 246.33 369.33 246.67 368 247 C366.83 248.92 366.83 248.92 366 251 C365.34 251.66 364.68 252.32 364 253 C361.06 261.74 360.89 272.27 364 281 C365.93 282.17 365.93 282.17 368 283 C368.66 283.99 369.32 284.98 370 286 C370.87 286.52 371.73 287.03 372.62 287.56 C373.8 288.27 373.8 288.27 375 289 C375 289.66 375 290.32 375 291 C383.13 291.92 391.22 292.09 399.4 292.09 C400.52 292.09 401.64 292.08 402.8 292.08 C416.32 292.04 429.83 291.67 443.35 291.26 C447.01 291.14 450.68 291.04 454.35 290.95 C457.22 290.87 460.09 290.78 462.96 290.69 C464.96 290.63 466.96 290.58 468.96 290.53 C475.03 290.33 480.24 289.9 486 288 C488.24 287.69 490.49 287.45 492.75 287.25 C494 287.14 495.25 287.02 496.53 286.9 C499.13 286.68 501.73 286.45 504.33 286.23 C511.15 285.6 516.69 284.6 523 282 C526.6 281.19 530.25 280.7 533.91 280.18 C538.3 279.49 541.22 278.45 545 276 C547.32 275.38 547.32 275.38 549.56 275 C553.2 274.28 555.07 273.29 558 271 C559.47 270.46 560.95 269.97 562.44 269.5 C565.99 268.39 568.89 267.08 572 265 C572.76 264.55 573.53 264.09 574.31 263.62 C575.2 263.09 576.09 262.55 577 262 C577.59 261.65 578.17 261.3 578.78 260.95 C583.44 258.12 587.7 254.96 591.96 251.57 C594.2 249.84 596.58 248.45 599 247 C599.72 246.28 600.44 245.56 601.19 244.81 C601.79 244.21 602.38 243.62 603 243 C603.66 243 604.32 243 605 243 C605.33 241.68 605.66 240.36 606 239 C607.98 238.5 607.98 238.5 610 238 C610.08 237.38 610.16 236.76 610.25 236.12 C611 234 611 234 612.94 233.06 C615.78 231.6 615.9 229.95 617 227 C618.31 225.32 619.65 223.65 621 222 C621.35 221.3 621.7 220.6 622.06 219.88 C623 218 623 218 624.44 216.61 C628.9 212.03 630.87 204.97 633.07 199.1 C634 197 634 197 636 195 C636.58 192.74 636.95 190.49 637.34 188.19 C638.1 185.65 639.15 184.84 641 183 C641.89 180.64 641.89 180.64 642.5 178.06 C643.44 174.34 644.6 171.98 647 169 C647.68 167.67 647.68 167.67 648.38 166.31 C650 164 650 164 652.69 163.19 C653.45 163.13 654.21 163.06 655 163 C655 162.34 655 161.68 655 161 C656.45 160.41 656.45 160.41 657.94 159.81 C660.96 158.54 663.73 157.03 666.56 155.38 C670.04 153.39 672.95 152.31 677 152 C677 151.34 677 150.68 677 150 C677.68 149.75 678.35 149.49 679.05 149.23 C679.94 148.89 680.83 148.54 681.75 148.19 C682.63 147.85 683.51 147.51 684.42 147.17 C686.94 146.03 688.81 144.66 691 143 C693 142.16 693 142.16 695 141.5 C698.16 140.38 700.34 139.06 703 137 C704.64 136.28 706.28 135.56 707.95 134.88 C710.35 133.85 712.67 132.68 715 131.5 C717.91 130.03 720.8 128.62 723.81 127.38 C726.75 126.11 729.27 124.65 732 123 C736.53 120.63 741.09 118.34 745.81 116.38 C748.93 115.12 748.93 115.12 751.38 113.56 C754.44 111.74 757.6 110.39 760.87 108.97 C763.37 107.83 765.65 106.42 768 105 C769.65 104.29 771.3 103.58 772.96 102.89 C780.52 99.78 780.52 99.78 787 95 C788.44 94.47 789.9 94 791.38 93.56 C794.84 92.47 797.16 91.27 800 89 C802.31 87.95 804.65 86.96 807 86 C808.25 85.46 809.5 84.92 810.75 84.38 C814 83 814 83 817 82 C817.48 81.52 817.95 81.03 818.44 80.53 C820.22 78.78 821.58 78.26 823.94 77.5 C827.13 76.39 829.32 75.07 832 73 C834.31 71.95 836.65 70.96 839 70 C842.63 68.51 845.89 67.07 849.19 64.94 C853.27 62.5 857.56 62.15 862.21 61.5 C865.52 60.91 868.02 59.52 871 58 C877.17 56.86 883.5 56.81 889.75 56.81 C890.62 56.81 891.49 56.81 892.38 56.81 C908.99 56.97 908.99 56.97 914.94 59.98 C918.67 61.83 922.85 62.31 926.91 63.12 C929.99 64 931.57 64.99 934 67 C936.33 68.02 938.66 69.01 941 70 C944.18 71.77 947.23 73.64 950 76 C950 76.66 950 77.32 950 78 C950.8 78.27 951.61 78.54 952.44 78.81 C953.28 79.2 954.13 79.6 955 80 C955.33 80.99 955.66 81.98 956 83 C956.96 83.22 956.96 83.22 957.94 83.44 C958.62 83.62 959.3 83.81 960 84 C960.7 85.32 961.37 86.65 962 88 C963.33 89.01 964.66 90.01 966 91 C966.33 91.99 966.66 92.98 967 94 C967.66 94.45 968.32 94.91 969 95.38 C971.52 97.42 971.66 98.84 972 102 C972.66 102 973.32 102 974 102 C976.19 106.27 978.15 110.58 980 115 C980.34 115.76 980.68 116.52 981.02 117.3 C982.15 120.43 982.62 123.39 983.06 126.69 C983.56 130.99 983.56 130.99 985 135 C986 141.92 986.34 148.37 984.67 155.18 C984.12 157.48 983.67 159.75 983.27 162.07 C983.14 162.79 983.01 163.51 982.88 164.25 C982.63 165.69 982.38 167.12 982.14 168.56 C981.53 171.97 980.95 174.07 979 177 C978.34 177 977.68 177 977 177 C976.88 178.83 976.88 178.83 976.75 180.69 C976.24 184.86 974.82 186.84 972 190 C971.53 190.95 971.05 191.9 970.56 192.88 C968.12 197.77 965.59 201.94 961 205 C960.69 205.68 960.38 206.36 960.06 207.06 C959 209 959 209 956.88 209.75 C956.26 209.83 955.64 209.91 955 210 C954.94 210.6 954.88 211.2 954.81 211.81 C953.67 214.89 951.82 215.45 949 217 C948.53 217.47 948.05 217.95 947.56 218.44 C945.3 220.7 942.68 222.27 940 224 C938.51 224.99 938.51 224.99 937 226 C936.01 226 935.02 226 934 226 C933.79 226.58 933.59 227.15 933.38 227.75 C931.48 230.85 929.09 232.12 926 234 C925.11 234.58 924.23 235.15 923.31 235.75 C921 237 921 237 918 237 C917.75 237.62 917.51 238.24 917.25 238.88 C915.76 241.41 914.62 241.81 912 243 C911.32 243.71 911.32 243.71 910.62 244.44 C909 246 909 246 905.94 247.5 C902.77 248.82 902.77 248.82 901 252 C900.36 252.14 899.72 252.29 899.06 252.44 C896.84 252.81 896.84 252.81 895.62 254.88 C893.5 257.66 891.15 258.52 888 260 C886.66 260.99 885.33 261.99 884 263 C883.01 263.33 882.02 263.66 881 264 C880.1 264.9 880.1 264.9 879.19 265.81 C875.12 269.88 870.02 272.63 865.14 275.64 C862.85 277.1 860.62 278.64 858.38 280.19 C855.67 282.02 853.71 283.09 850.56 284.12 C847.86 284.72 847.86 284.72 847 286.94 C846.67 287.62 846.34 288.3 846 289 C844.04 290.07 842.03 291.07 840 292 C838.66 292.99 837.33 293.99 836 295 C835.01 295.33 834.02 295.66 833 296 C832.4 296.66 831.8 297.32 831.19 298 C829 300 829 300 825.88 300.5 C824.93 300.66 823.98 300.83 823 301 C821.91 302.93 821.91 302.93 821 305 C819.35 305.72 817.69 306.38 816 307 C815.32 307.74 815.32 307.74 814.62 308.5 C813 310 813 310 809.44 310.94 C805.94 311.58 805.94 311.58 804.94 313.94 C804.63 314.62 804.32 315.3 804 316 C801.19 317.56 801.19 317.56 798 319 C797.11 319.56 796.23 320.11 795.31 320.69 C793 322 793 322 790 322 C789.75 322.62 789.51 323.23 789.25 323.87 C787.76 326.41 786.66 326.96 784 328.12 C781.43 329.27 780.02 329.98 778 332 C777.2 332.31 776.39 332.62 775.56 332.94 C773 333.8 773 333.8 771.56 335.5 C770 337 770 337 766.94 338 C763.72 338.76 763.72 338.76 762 342 C759.67 343.02 757.34 344.01 755 345 C754.23 345.8 754.23 345.8 753.44 346.62 C751.26 348.71 748.92 348.68 746 349 C745.67 349.99 745.34 350.98 745 352 C742.02 353.96 740.74 354 737 354 C736.74 354.62 736.49 355.24 736.22 355.88 C734.82 358.31 733.97 358.83 731.44 359.94 C724.24 363.26 717.42 367.25 710.69 371.44 C708.46 372.73 706.25 373.87 703.94 375 C701.03 376.43 698.58 378.02 696 380 C694.01 381.02 692.01 382.02 690 383 C687.54 384.44 685.12 385.92 682.75 387.5 C679.56 389.24 676.38 390.18 672.89 391.16 C671.95 391.57 671.95 391.57 671 392 C670.67 392.99 670.34 393.98 670 395 C668.11 396.06 668.11 396.06 665.75 397 C663.06 398.11 660.69 399.19 658.19 400.69 C656 402 656 402 653.81 402.5 C651.59 402.9 651.59 402.9 650 406 C647.68 406.68 645.39 407.01 643 407.38 C642.34 407.58 641.68 407.79 641 408 C640.67 408.99 640.34 409.98 640 411 C638.11 412.06 638.11 412.06 635.75 413 C632.29 414.44 629.19 416.01 626 418 C621.78 420.45 617.58 422.83 613.06 424.69 C609.96 425.79 609.96 425.79 608 428 C606.3 428.46 606.3 428.46 604.56 428.94 C601.08 429.66 601.08 429.66 599.5 431.56 C597.07 433.89 594.23 433.69 591 434 C590.67 434.99 590.34 435.98 590 437 C588.22 437.95 588.22 437.95 586.06 438.69 C585.35 438.94 584.64 439.19 583.91 439.45 C582 440 582 440 580 440 C580 440.66 580 441.32 580 442 C579.32 442.25 578.65 442.51 577.95 442.77 C577.06 443.11 576.17 443.46 575.25 443.81 C574.37 444.15 573.49 444.49 572.58 444.83 C570.06 445.97 568.19 447.34 566 449 C564 449.84 564 449.84 562 450.5 C558.85 451.61 556.66 452.96 554 455 C552 455.67 550 456.33 548 457 C547.38 457.47 546.76 457.95 546.12 458.44 C543.54 460.34 540.96 461.18 537.95 462.25 C535.45 463.21 533.28 464.58 531 466 C529.33 466.67 527.67 467.33 526 468 C525.22 468.49 524.43 468.99 523.62 469.5 C521 471 521 471 517.44 472 C514.09 472.97 512.7 473.95 510 476 C508.01 476.82 505.99 477.53 503.96 478.24 C501.45 479.21 499.29 480.6 497 482 C496.28 482.16 495.56 482.33 494.81 482.5 C492.59 482.9 492.59 482.9 491 486 C488.68 487.03 486.35 488.03 484 489 C483.34 489.49 482.68 489.99 482 490.5 C479.23 492.58 476.2 493.68 473 495 C471.97 495.52 470.94 496.03 469.88 496.56 C467 498 467 498 464.44 499 C461.93 499.93 461.93 499.93 459.69 501.56 C456.08 503.49 453.06 503.66 449 504 C448.67 504.99 448.34 505.98 448 507 C445.64 507.84 445.64 507.84 442.69 508.5 C438.56 509.41 438.56 509.41 434.99 511.53 C431.85 513.85 428.45 513.87 424.66 514.38 C421.97 514.81 421.97 514.81 420.14 516.47 C417.11 518.64 413.91 518.95 410.31 519.5 C405.83 520.25 401.57 520.99 397.31 522.62 C388.79 525.73 378.97 525.18 370 525 C370 525.99 370 526.98 370 528 C345.91 528 321.82 528 297 528 C297 527.01 297 526.02 297 525 C296.3 524.99 295.59 524.98 294.86 524.97 C291.62 524.92 288.37 524.83 285.12 524.75 C283.46 524.73 283.46 524.73 281.77 524.71 C275.22 524.51 270.16 523.62 264.19 520.93 C261.23 519.68 258.37 519.28 255.19 518.94 C250.58 518.44 247.91 517.42 244 515 C242.04 514.43 240.06 513.93 238.06 513.5 C233.63 512.46 230.02 511.15 226 509 C223.7 508.2 221.38 507.46 219.05 506.75 C217 506 217 506 214 504 C211.73 503.44 209.46 503.06 207.16 502.66 C204.65 501.89 203.8 500.84 202 499 C199.87 498.11 199.87 498.11 197.56 497.5 C194.11 496.43 191.83 495.27 189 493 C186.67 492 184.34 490.99 182 490 C181.34 489.34 180.68 488.68 180 488 C178.27 487.25 176.54 486.5 174.8 485.79 C172.4 484.74 170.24 483.35 168 482 C167.09 481.67 166.19 481.34 165.25 481 C164.51 480.67 163.76 480.34 163 480 C162.67 479.01 162.34 478.02 162 477 C159.99 476.3 159.99 476.3 157.62 476 C153.93 475.42 152.56 474.66 150 472 C147.94 471.14 145.87 470.5 143.74 469.84 C143.17 469.57 142.59 469.29 142 469 C141.67 468.01 141.34 467.02 141 466 C139.72 465.92 138.44 465.84 137.12 465.75 C134.95 465.61 134.95 465.61 133 465 C132.68 464.35 132.35 463.69 132.02 463.02 C131.19 460.8 131.19 460.8 128.94 460.28 C128.16 460.17 127.37 460.05 126.56 459.94 C122.89 459.4 121.53 458.67 119 456 C117.14 455.12 117.14 455.12 115.12 454.5 C111.79 453.33 109 451.89 106 450 C103.17 448.55 100.32 447.16 97.46 445.77 C96.12 445.11 96.12 445.11 94.75 444.44 C93.9 444.02 93.05 443.61 92.17 443.18 C90 442 90 442 88 440 C86.2 439.22 86.2 439.22 84.19 438.56 C80.85 437.37 78.02 435.88 75 434 C74.15 433.67 73.31 433.34 72.44 433 C70 432 70 432 68.12 430.56 C65.3 428.49 62.21 427.37 59 426 C58.34 425.34 57.68 424.68 57 424 C55.87 423.69 54.73 423.38 53.56 423.06 C49.95 421.99 49.47 421.47 47 419 C45.1 418.12 45.1 418.12 43.06 417.5 C39.88 416.39 37.68 415.06 35 413 C34.01 412.67 33.02 412.34 32 412 C29 411 29 411 27.12 409.56 C24.54 407.66 21.95 406.82 18.95 405.75 C16.43 404.78 14.26 403.47 12 402 C8.36 399.74 4.66 397.85 0.77 396.06 C-1 395 -1 395 -3 392 C-3.25 389.17 -3.25 389.17 -3.25 385.64 C-3.26 384.66 -3.26 384.66 -3.26 383.66 C-3.27 381.47 -3.27 379.27 -3.26 377.07 C-3.26 375.48 -3.27 373.9 -3.27 372.31 C-3.28 367.94 -3.28 363.57 -3.28 359.21 C-3.27 354.5 -3.28 349.79 -3.29 345.08 C-3.3 335.85 -3.3 326.63 -3.3 317.4 C-3.3 309.9 -3.3 302.4 -3.31 294.9 C-3.31 293.83 -3.31 292.77 -3.31 291.67 C-3.31 289.5 -3.31 287.34 -3.31 285.17 C-3.32 264.84 -3.32 244.52 -3.31 224.19 C-3.31 205.59 -3.32 186.99 -3.34 168.38 C-3.36 149.29 -3.37 130.2 -3.36 111.11 C-3.36 100.39 -3.36 89.67 -3.38 78.95 C-3.39 69.82 -3.39 60.69 -3.38 51.56 C-3.37 46.9 -3.37 42.24 -3.38 37.58 C-3.4 33.32 -3.39 29.05 -3.38 24.79 C-3.38 23.25 -3.38 21.7 -3.39 20.16 C-3.4 18.06 -3.39 15.96 -3.37 13.87 C-3.37 12.7 -3.37 11.54 -3.37 10.33 C-2.93 6.34 -1.73 3.61 0 0 Z " fill="#202632" transform="translate(289,592)"/>
<path d="M0 0 C0.91 -0 1.81 -0.01 2.74 -0.01 C5.74 -0.02 8.73 -0.03 11.73 -0.03 C13.89 -0.04 16.05 -0.04 18.21 -0.05 C25.27 -0.07 32.33 -0.08 39.39 -0.09 C41.82 -0.1 44.26 -0.1 46.69 -0.1 C58.12 -0.12 69.55 -0.14 80.98 -0.15 C94.17 -0.15 107.35 -0.18 120.54 -0.22 C130.75 -0.25 140.95 -0.27 151.16 -0.27 C157.25 -0.27 163.34 -0.28 169.43 -0.31 C175.15 -0.33 180.87 -0.33 186.59 -0.32 C188.69 -0.32 190.79 -0.33 192.89 -0.34 C195.76 -0.36 198.62 -0.35 201.48 -0.34 C202.32 -0.35 203.15 -0.36 204.01 -0.37 C207.35 -0.34 209.67 -0.25 212.44 1.69 C214.88 5.03 214.78 7.94 214.73 11.91 C214.74 12.7 214.74 13.49 214.75 14.31 C214.76 16.97 214.75 19.64 214.73 22.31 C214.74 24.23 214.74 26.15 214.75 28.08 C214.76 33.38 214.75 38.68 214.74 43.98 C214.73 49.69 214.74 55.4 214.75 61.11 C214.76 72.3 214.76 83.5 214.74 94.69 C214.72 107.71 214.73 120.73 214.73 133.76 C214.74 157.68 214.72 181.61 214.7 205.54 C214.67 227.4 214.67 249.26 214.68 271.12 C214.68 276.72 214.68 282.32 214.69 287.91 C214.69 288.6 214.69 289.29 214.69 290 C214.69 308.25 214.69 326.5 214.68 344.75 C214.68 347.37 214.67 349.98 214.67 352.6 C214.67 353.88 214.67 355.17 214.67 356.5 C214.67 365.58 214.67 374.67 214.67 383.76 C214.68 394.82 214.67 405.89 214.65 416.95 C214.64 422.6 214.64 428.25 214.64 433.91 C214.65 439.07 214.64 444.24 214.63 449.4 C214.62 451.28 214.62 453.15 214.63 455.03 C214.64 457.56 214.63 460.1 214.61 462.63 C214.62 463.75 214.62 463.75 214.63 464.88 C214.61 466.92 214.61 466.92 214.23 470.15 C148.77 513.79 56.9 472.15 -21.77 472.15 C-21.77 316.72 -21.77 161.29 -21.77 1.15 C-14.42 0.53 -7.33 -0 0 0 Z " fill="#53FFAB" stroke="#202632" stroke-width="50" transform="translate(21.7681884765625,553.8528289794922)"/>
<path d="M0 0 C144.54 0 289.08 0 438 0 C438 0.99 438 1.98 438 3 C438.79 3.03 439.57 3.05 440.38 3.08 C447.21 3.45 451.31 4.28 457 8 C458.36 8.55 459.74 9.08 461.12 9.56 C464.36 10.71 467.11 12.13 470 14 C470.93 14.52 471.86 15.03 472.81 15.56 C473.53 16.04 474.26 16.51 475 17 C475 17.66 475 18.32 475 19 C475.91 19.25 476.82 19.5 477.75 19.75 C481.23 21.09 482.52 22.29 485 25 C487 26.67 489 28.34 491 30 C492.02 30.98 493.02 31.98 494 33 C494.89 33.83 495.77 34.65 496.69 35.5 C499 38 499 38 499 41 C499.87 41.31 499.87 41.31 500.75 41.62 C505.68 44.64 508.14 50.95 510.84 55.9 C511.74 57.52 512.7 59.11 513.69 60.69 C515.21 63.37 516.03 66.08 517 69 C517.52 69.72 518.03 70.44 518.56 71.19 C520.8 75.56 520.75 80.15 521 85 C521.99 85 522.98 85 524 85 C524 184.66 524 284.32 524 387 C523.01 387 522.02 387 521 387 C520.96 388.18 520.96 388.18 520.92 389.38 C520.55 396.21 519.72 400.31 516 406 C515.45 407.38 514.93 408.78 514.44 410.19 C513.35 413.25 512.09 415.47 510 418 C509.48 418.91 508.97 419.81 508.44 420.75 C507.73 421.86 507.73 421.86 507 423 C506.34 423 505.68 423 505 423 C504.96 423.68 504.92 424.36 504.88 425.06 C503.61 429.31 500.95 431.78 498 435 C497.46 435.65 496.92 436.31 496.36 436.98 C491.66 442.65 486.13 448.62 479 451 C478.53 451.66 478.05 452.32 477.56 453 C475.69 455.4 474.85 455.31 472 456 C471.4 456.62 470.8 457.24 470.19 457.88 C467.43 460.55 464.54 461.56 461 463 C460.34 463.66 459.68 464.32 459 465 C456.52 465.58 454.03 465.95 451.51 466.34 C448.96 466.82 448.96 466.82 447.25 468.47 C443.75 470.85 439.96 471.02 435.81 471.56 C434.17 471.79 432.53 472.02 430.89 472.25 C429.81 472.4 429.81 472.4 428.7 472.55 C426.38 472.94 424.15 473.45 421.86 474.01 C417.35 475.02 413.11 475.29 408.5 475.27 C407.3 475.28 407.3 475.28 406.06 475.29 C403.39 475.3 400.72 475.3 398.05 475.3 C396.12 475.31 394.2 475.32 392.27 475.33 C388.14 475.35 384.01 475.36 379.87 475.37 C373.34 475.38 366.8 475.4 360.27 475.43 C349.94 475.47 339.61 475.5 329.28 475.53 C310.77 475.58 292.25 475.65 273.74 475.72 C267.24 475.74 260.75 475.76 254.25 475.78 C250.21 475.79 246.18 475.8 242.14 475.82 C240.27 475.82 238.4 475.83 236.52 475.83 C233.97 475.83 231.41 475.84 228.86 475.86 C228.12 475.85 227.37 475.85 226.6 475.85 C219.75 475.82 219.75 475.82 214.38 479.56 C213.2 480.77 213.2 480.77 212 482 C211.34 482 210.68 482 210 482 C209.76 482.59 209.52 483.18 209.27 483.79 C207.77 486.41 206.18 487.65 203.75 489.44 C200.95 491.52 198.24 493.62 195.62 495.94 C193 498 193 498 190 498 C189.92 498.62 189.84 499.24 189.75 499.88 C189 502 189 502 187.25 502.94 C186.51 503.29 185.76 503.64 185 504 C183.29 505.62 181.63 507.29 180 509 C177.1 512 174.06 514.72 170.87 517.41 C169.6 518.49 168.34 519.6 167.1 520.72 C166.49 521.27 165.88 521.81 165.25 522.38 C164.7 522.88 164.15 523.38 163.58 523.9 C162 525 162 525 159 525 C158.63 525.96 158.63 525.96 158.25 526.94 C157 529 157 529 154.88 529.75 C153.95 529.87 153.95 529.87 153 530 C152.92 530.62 152.84 531.24 152.75 531.88 C152 534 152 534 150.19 535 C149.47 535.33 148.74 535.66 148 536 C146.64 537.31 145.31 538.65 144 540 C142.8 541.07 141.59 542.13 140.38 543.19 C137.2 545.95 134.06 548.74 130.94 551.56 C119.54 561.82 119.54 561.82 116 563 C115.5 563.68 115.01 564.36 114.5 565.06 C113.76 566.02 113.76 566.02 113 567 C112.01 567 111.02 567 110 567 C109.92 567.62 109.84 568.24 109.75 568.88 C109 571 109 571 107.25 571.94 C106.51 572.29 105.76 572.64 105 573 C104.13 573.87 103.27 574.73 102.38 575.62 C101.59 576.41 100.81 577.19 100 578 C99.34 578 98.68 578 98 578 C97.79 578.57 97.58 579.13 97.37 579.71 C95.48 582.86 93.04 584.43 90.06 586.56 C85.98 589.43 85.98 589.43 82.31 592.78 C81 594 81 594 78 594 C77.92 594.62 77.84 595.24 77.75 595.88 C77 598 77 598 75.12 599 C74.42 599.33 73.72 599.66 73 600 C71.99 601.33 70.99 602.66 70 604 C69.01 604.33 68.02 604.66 67 605 C66.67 605.99 66.34 606.98 66 608 C64.35 609.03 62.68 610.02 61 611 C59.64 612.31 58.31 613.65 57 615 C51.63 619.99 45.54 624.06 38 624.5 C32.27 624.18 27.04 621.71 22.69 618.06 C22.13 617.38 21.57 616.7 21 616 C20.28 615.15 19.56 614.31 18.81 613.44 C15.02 608.34 15.81 602.84 15.81 596.75 C15.81 595.64 15.81 594.53 15.81 593.39 C15.87 585.79 16.21 578.26 16.88 570.69 C16.95 569.79 17.03 568.89 17.11 567.97 C17.55 563.39 18.19 558.92 19.04 554.41 C20.26 547.34 20.36 540.29 20.46 533.13 C20.65 521.36 21 509.62 21.94 497.88 C22.01 496.91 22.09 495.94 22.16 494.94 C22.69 488.86 23.68 482.96 25 477 C16.65 473.78 8.72 472.17 -0.14 471.13 C-4.7 470.55 -7.44 470.06 -11 467 C-13.67 466.11 -13.67 466.11 -16.5 465.5 C-20.43 464.59 -22.87 463.53 -26 461 C-26.85 460.67 -27.69 460.34 -28.56 460 C-31.12 458.95 -32.08 457.92 -34 456 C-35.49 455.26 -35.49 455.26 -37 454.5 C-39.71 453.14 -40.97 452.12 -43 450 C-43.76 449.59 -44.53 449.18 -45.31 448.75 C-48.38 446.76 -50.23 444.5 -52.53 441.7 C-54.45 439.48 -56.71 437.82 -59 436 C-63.75 430.77 -68.75 424.75 -71 418 C-71.99 417.34 -72.98 416.68 -74 416 C-74.68 413.68 -75.01 411.39 -75.38 409 C-75.58 408.34 -75.79 407.68 -76 407 C-76.99 406.67 -77.98 406.34 -79 406 C-79.84 403.45 -79.84 403.45 -80.5 400.25 C-81.19 396.93 -81.76 394.39 -83.53 391.48 C-86.5 386.47 -86.26 380.4 -86.55 374.69 C-86.6 373.87 -86.64 373.04 -86.68 372.2 C-87.19 361.11 -87.14 350.03 -87.13 338.94 C-87.13 336.47 -87.13 334.01 -87.13 331.55 C-87.14 325.6 -87.14 319.65 -87.14 313.7 C-87.13 308.86 -87.13 304.02 -87.13 299.17 C-87.13 298.48 -87.13 297.79 -87.13 297.07 C-87.13 295.66 -87.13 294.25 -87.14 292.84 C-87.14 279.67 -87.13 266.5 -87.13 253.33 C-87.12 242.07 -87.13 230.81 -87.13 219.56 C-87.14 206.43 -87.14 193.3 -87.13 180.17 C-87.13 178.77 -87.13 177.36 -87.13 175.96 C-87.13 175.27 -87.13 174.58 -87.13 173.87 C-87.13 169.04 -87.13 164.21 -87.14 159.39 C-87.14 152.87 -87.14 146.35 -87.13 139.83 C-87.13 137.46 -87.13 135.08 -87.13 132.7 C-87.14 121.73 -87.09 110.77 -86.55 99.81 C-86.51 99 -86.47 98.2 -86.43 97.37 C-85.62 82.62 -85.62 82.62 -82 79 C-81.17 76 -80.53 72.99 -79.88 69.95 C-78.99 66.97 -77.94 65.37 -76 63 C-74.98 60.67 -73.99 58.34 -73 56 C-72.02 54.32 -71.03 52.65 -70 51 C-69.67 50.28 -69.34 49.56 -69 48.81 C-68 47 -68 47 -65 45 C-64.48 44.13 -63.97 43.27 -63.44 42.38 C-62.96 41.59 -62.49 40.81 -62 40 C-61.34 40 -60.68 40 -60 40 C-59.84 39.32 -59.67 38.64 -59.5 37.94 C-57.27 33.58 -53.76 31.05 -50 28 C-46.06 24.8 -46.06 24.8 -42.38 21.31 C-40.74 19.75 -39.02 19.01 -37 18 C-36.55 17.5 -36.09 17.01 -35.62 16.5 C-33.38 14.43 -30.88 13.96 -28 13 C-27.53 12.53 -27.07 12.05 -26.59 11.57 C-24.73 9.73 -23.03 8.95 -20.62 7.94 C-19.87 7.62 -19.12 7.3 -18.35 6.96 C-17.58 6.65 -16.8 6.33 -16 6 C-14.8 5.46 -14.8 5.46 -13.57 4.92 C-10.72 3.9 -8.21 3.59 -5.19 3.38 C-4.21 3.3 -3.24 3.23 -2.23 3.15 C-1.49 3.1 -0.76 3.05 0 3 C0 2.01 0 1.02 0 0 Z M5 46 C-1.53 48.92 -1.53 48.92 -4.81 49.5 C-7.38 49.82 -7.38 49.82 -9 53 C-10.97 54.06 -12.97 55.07 -15 56 C-15 56.66 -15 57.32 -15 58 C-15.84 58.37 -15.84 58.37 -16.69 58.75 C-21.97 61.6 -25.15 65.33 -28.59 70.13 C-30 72 -30 72 -32.12 73.94 C-35.04 77.15 -36.4 81.01 -38 85 C-38.46 86.05 -38.46 86.05 -38.93 87.13 C-44.6 102.3 -44.58 118.13 -44.53 134.09 C-44.54 136.56 -44.55 139.03 -44.56 141.49 C-44.58 147.45 -44.58 153.41 -44.57 159.36 C-44.57 164.22 -44.57 169.07 -44.57 173.92 C-44.58 174.62 -44.58 175.31 -44.58 176.03 C-44.58 177.44 -44.58 178.86 -44.58 180.27 C-44.6 193.48 -44.59 206.68 -44.57 219.89 C-44.56 231.91 -44.57 243.93 -44.6 255.96 C-44.63 268.36 -44.64 280.77 -44.63 293.18 C-44.63 294.59 -44.63 296 -44.63 297.41 C-44.63 298.1 -44.63 298.79 -44.63 299.51 C-44.63 304.34 -44.64 309.17 -44.65 314 C-44.67 320.54 -44.66 327.07 -44.64 333.61 C-44.63 335.99 -44.64 338.36 -44.65 340.74 C-44.73 355.93 -44.61 372.63 -39 387 C-38.01 387.66 -37.02 388.32 -36 389 C-35.16 390.84 -35.16 390.84 -34.5 392.94 C-33.51 396.1 -32.42 397.74 -30 400 C-29.33 401.33 -28.67 402.67 -28 404 C-26.58 405.58 -26.58 405.58 -25 407 C-23.14 408.86 -21.31 410.72 -19.5 412.62 C-17.16 415.18 -17.16 415.18 -14 416 C-13.01 417.49 -13.01 417.49 -12 419 C-10.11 419.89 -10.11 419.89 -8 420.5 C-4.55 421.57 -4.15 421.78 -2 425 C0.77 425.95 0.77 425.95 3.94 426.56 C7.63 427.36 9.83 427.89 13 430 C15.97 430.22 18.86 430.33 21.83 430.34 C22.7 430.36 23.57 430.37 24.47 430.39 C27.25 430.43 30.03 430.47 32.81 430.5 C36.47 430.54 40.12 430.6 43.77 430.66 C44.6 430.66 45.44 430.67 46.3 430.67 C53.63 430.8 58.28 432.24 64 437 C64.66 437 65.32 437 66 437 C66.29 438.07 66.58 439.14 66.88 440.25 C67.78 443.77 67.78 443.77 69.05 445.84 C72.44 453.57 69.84 464.62 68.56 472.69 C66.89 483.48 66.6 494.18 66.39 505.08 C66.12 519.11 65.29 533.02 64 547 C67.92 547.29 67.92 547.29 71.12 545.19 C72.05 544.1 72.05 544.1 73 543 C73.87 542.2 73.87 542.2 74.75 541.38 C76.22 540.06 76.22 540.06 76 538 C76.56 537.94 77.11 537.88 77.69 537.81 C80.95 536.67 82.58 534.45 85 532 C86.81 530.46 88.65 528.93 90.5 527.44 C91.42 526.69 92.34 525.95 93.28 525.18 C95.1 523.72 96.93 522.28 98.78 520.85 C101.07 519.19 101.07 519.19 102 517 C103.67 516 105.33 515 107 514 C107.33 513.34 107.66 512.68 108 512 C108.74 511.57 109.49 511.13 110.25 510.69 C113.34 508.79 115.44 506.56 118 504 C120.52 501.85 123.06 499.75 125.63 497.66 C127.93 495.77 130.14 493.86 132.25 491.75 C134.08 489.92 135.7 489.15 138 488 C139.36 486.69 140.69 485.35 142 484 C144.02 482.21 146.05 480.44 148.1 478.68 C149.8 477.18 151.4 475.61 153 474 C157.82 469.66 162.92 465.69 168.06 461.73 C168.7 461.16 169.34 460.59 170 460 C170 459.34 170 458.68 170 458 C171.18 457.6 171.18 457.6 172.38 457.19 C175.28 456.15 175.28 456.15 177 453 C178.33 452.33 179.67 451.67 181 451 C181.66 450.01 182.32 449.02 183 448 C183.6 447.71 184.2 447.42 184.81 447.12 C188.54 445.21 191.09 441.96 193.94 438.94 C201.12 432.19 208.47 430.7 217.97 430.74 C218.85 430.74 219.73 430.73 220.64 430.73 C223.58 430.72 226.51 430.72 229.45 430.73 C231.56 430.72 233.67 430.72 235.79 430.71 C240.32 430.7 244.86 430.7 249.4 430.7 C256.58 430.69 263.76 430.68 270.93 430.65 C288.76 430.61 306.58 430.57 324.4 430.55 C338.26 430.54 352.11 430.51 365.97 430.47 C373.11 430.45 380.24 430.44 387.38 430.44 C391.82 430.44 396.25 430.43 400.69 430.41 C402.74 430.4 404.8 430.4 406.86 430.41 C409.67 430.41 412.48 430.4 415.28 430.39 C416.1 430.39 416.92 430.4 417.76 430.4 C422.41 430.35 425.22 429.7 429 427 C432.03 426.14 435.08 425.5 438.16 424.84 C441.08 423.98 442.68 422.91 445 421 C446.01 420.5 447.02 420.01 448.06 419.5 C450.7 418.16 452.01 417.08 454 415 C454.68 414.67 455.36 414.34 456.06 414 C458.33 413.03 458.33 413.03 460 410 C460.99 409.67 461.98 409.34 463 409 C463.33 408.01 463.66 407.02 464 406 C464.33 405.01 464.66 404.02 465 403 C465.99 402.67 466.98 402.34 468 402 C472.83 396.32 475.31 388.84 478 382 C478.51 380.85 478.51 380.85 479.03 379.68 C483.44 367.47 481.14 351.01 481.13 338.21 C481.13 335.72 481.13 333.22 481.13 330.73 C481.14 324.69 481.14 318.65 481.14 312.61 C481.13 307.7 481.13 302.78 481.13 297.87 C481.13 297.17 481.13 296.47 481.13 295.74 C481.13 294.32 481.13 292.89 481.14 291.46 C481.14 278.12 481.13 264.78 481.13 251.43 C481.12 240.01 481.13 228.58 481.13 217.16 C481.14 203.86 481.14 190.56 481.13 177.26 C481.13 175.84 481.13 174.42 481.13 172.99 C481.13 172.3 481.13 171.6 481.13 170.88 C481.13 165.98 481.13 161.07 481.14 156.17 C481.14 149.56 481.14 142.95 481.13 136.35 C481.13 133.93 481.13 131.51 481.13 129.09 C482.19 107.96 482.19 107.96 477 88 C476.28 86.4 475.58 84.8 474.88 83.19 C473.95 81.1 473.02 79.04 472 77 C471.34 77 470.68 77 470 77 C469.73 76.03 469.46 75.06 469.19 74.06 C468.8 73.05 468.4 72.04 468 71 C467.01 70.67 466.02 70.34 465 70 C464.66 68.95 464.66 68.95 464.31 67.88 C462.59 64.1 460.06 62.23 456.88 59.65 C455 58 455 58 453 55 C450.69 53.95 448.35 52.96 446 52 C444.79 51.26 444.79 51.26 443.56 50.5 C440.19 48.53 436.68 47.27 433 46 C432.12 45.67 431.23 45.33 430.32 44.99 C419.2 41.67 406.05 42.85 394.52 42.87 C392.93 42.87 391.33 42.87 389.74 42.87 C385.4 42.86 381.07 42.87 376.73 42.87 C372.03 42.87 367.34 42.87 362.65 42.87 C353.47 42.86 344.29 42.86 335.11 42.86 C327.65 42.87 320.19 42.87 312.72 42.87 C311.66 42.87 310.59 42.87 309.5 42.87 C307.33 42.87 305.17 42.87 303.01 42.86 C282.75 42.86 262.5 42.87 242.24 42.87 C224.88 42.88 207.53 42.87 190.17 42.87 C169.98 42.86 149.79 42.86 129.61 42.87 C127.45 42.87 125.3 42.87 123.14 42.87 C122.08 42.87 121.02 42.87 119.93 42.87 C112.48 42.87 105.03 42.87 97.58 42.86 C88.5 42.86 79.41 42.86 70.33 42.87 C65.7 42.87 61.07 42.87 56.44 42.87 C52.19 42.86 47.95 42.87 43.7 42.87 C42.17 42.87 40.64 42.87 39.12 42.87 C21.66 42.13 21.66 42.13 5 46 Z " fill="#202632" transform="translate(756,0)"/>
<path d="M0 0 C1.04 -0.01 2.08 -0.01 3.15 -0.02 C4.87 -0.01 4.87 -0.01 6.63 -0.01 C8.45 -0.02 8.45 -0.02 10.31 -0.02 C13.69 -0.03 17.07 -0.04 20.45 -0.03 C24.09 -0.03 27.73 -0.04 31.37 -0.05 C38.51 -0.07 45.65 -0.08 52.79 -0.08 C58.59 -0.08 64.39 -0.08 70.19 -0.09 C86.64 -0.11 103.08 -0.12 119.52 -0.11 C120.41 -0.11 121.3 -0.11 122.21 -0.11 C123.54 -0.11 123.54 -0.11 124.9 -0.11 C139.29 -0.11 153.68 -0.13 168.07 -0.16 C182.84 -0.19 197.61 -0.2 212.38 -0.2 C220.67 -0.2 228.97 -0.21 237.26 -0.23 C244.33 -0.24 251.39 -0.25 258.45 -0.24 C262.05 -0.23 265.66 -0.23 269.26 -0.25 C273.17 -0.27 277.07 -0.25 280.98 -0.24 C282.69 -0.25 282.69 -0.25 284.43 -0.27 C290.66 -0.21 294.22 0.18 298.99 4.26 C299.82 4.69 300.64 5.12 301.49 5.57 C307.7 9.76 312.03 16.05 313.99 23.26 C314.75 29.93 314.73 34.57 310.99 40.26 C310.62 41.35 310.25 42.44 309.87 43.57 C307.69 48.68 303.71 52.46 298.99 55.26 C290.9 57.92 283.21 58.69 274.74 58.64 C273.56 58.64 272.39 58.65 271.18 58.65 C267.96 58.66 264.74 58.66 261.51 58.65 C258.02 58.64 254.54 58.65 251.05 58.66 C244.23 58.67 237.41 58.67 230.59 58.66 C225.04 58.66 219.49 58.66 213.95 58.66 C212.76 58.66 212.76 58.66 211.55 58.66 C209.94 58.66 208.33 58.66 206.72 58.66 C191.67 58.67 176.61 58.66 161.56 58.65 C148.66 58.63 135.76 58.63 122.86 58.65 C107.86 58.66 92.85 58.67 77.85 58.66 C76.25 58.66 74.64 58.66 73.04 58.66 C72.25 58.66 71.46 58.66 70.65 58.66 C65.12 58.65 59.58 58.66 54.05 58.67 C47.29 58.67 40.54 58.67 33.79 58.66 C30.35 58.65 26.91 58.65 23.47 58.66 C19.73 58.66 15.99 58.65 12.25 58.64 C11.18 58.64 10.1 58.65 9 58.66 C-8.36 58.52 -8.36 58.52 -14.26 53.24 C-14.83 52.59 -15.41 51.93 -16.01 51.26 C-16.5 50.76 -17 50.27 -17.51 49.76 C-18 49.26 -18.5 48.77 -19.01 48.26 C-19.69 47.72 -20.37 47.18 -21.07 46.63 C-26.66 39.77 -25.49 29.08 -24.8 20.77 C-23.82 14.5 -20.79 10.36 -16.01 6.26 C-13.98 5.01 -11.99 3.98 -9.8 3.05 C-2.88 0 -2.88 0 0 0 Z " fill="#202632" transform="translate(833.0063600540161,142.74273109436035)"/>
<path d="M0 0 C0.83 -0 1.66 -0.01 2.52 -0.01 C5.31 -0.02 8.1 -0.02 10.88 -0.02 C12.88 -0.03 14.88 -0.03 16.88 -0.04 C22.31 -0.05 27.74 -0.06 33.17 -0.06 C36.56 -0.06 39.96 -0.07 43.35 -0.07 C53.96 -0.08 64.58 -0.09 75.19 -0.1 C87.44 -0.1 99.7 -0.12 111.95 -0.15 C121.42 -0.17 130.89 -0.18 140.36 -0.18 C146.02 -0.18 151.68 -0.19 157.33 -0.21 C162.65 -0.22 167.97 -0.23 173.3 -0.22 C175.25 -0.22 177.2 -0.22 179.15 -0.23 C181.82 -0.24 184.48 -0.24 187.15 -0.23 C187.92 -0.24 188.69 -0.24 189.48 -0.25 C194.61 -0.2 198.1 0.87 202.7 3.14 C203.78 3.54 203.78 3.54 204.88 3.95 C206.58 4.58 206.58 4.58 209.7 6.14 C210.64 8.33 210.64 8.33 210.7 10.14 C211.3 10.18 211.9 10.22 212.51 10.27 C215.81 11.58 216.29 14 217.7 17.14 C218.69 18.13 218.69 18.13 219.7 19.14 C220.97 22.68 220.9 26.28 220.95 30.02 C220.99 31.81 220.99 31.81 221.03 33.63 C220.67 37.49 219.62 39.8 217.7 43.14 C217.37 43.8 217.05 44.47 216.71 45.15 C214.58 49.19 212.72 51.08 208.7 53.14 C208.27 53.63 207.84 54.11 207.39 54.61 C199.62 61.63 182.99 59.56 173.26 59.53 C171.32 59.53 169.39 59.54 167.46 59.54 C162.25 59.56 157.04 59.55 151.83 59.54 C146.36 59.54 140.88 59.54 135.41 59.55 C126.22 59.55 117.03 59.55 107.84 59.53 C97.24 59.52 86.64 59.52 76.05 59.54 C66.92 59.55 57.79 59.55 48.66 59.54 C43.23 59.54 37.79 59.54 32.35 59.55 C27.23 59.56 22.12 59.55 17 59.53 C15.13 59.53 13.26 59.53 11.4 59.54 C-14.54 59.62 -14.54 59.62 -20.49 54.11 C-21.39 53.14 -21.39 53.14 -22.3 52.14 C-23.51 51.52 -23.51 51.52 -24.74 50.89 C-29.16 47.87 -31.62 43.16 -33.3 38.14 C-33.42 35.5 -33.48 32.9 -33.49 30.27 C-33.5 29.56 -33.51 28.85 -33.52 28.12 C-33.53 24.03 -33.26 20.77 -31.3 17.14 C-30.64 16.81 -29.98 16.48 -29.3 16.14 C-28.89 15.23 -28.47 14.33 -28.05 13.39 C-25.11 7.93 -21.02 5.21 -15.3 3.14 C-14.64 2.48 -13.98 1.82 -13.3 1.14 C-8.94 -0.13 -4.5 -0.01 0 0 Z " fill="#202632" transform="translate(842.2987976074219,280.85955810546875)"/>
</svg>