<svg width="32" height="30" viewBox="0 0 32 30" fill="none" xmlns="http://www.w3.org/2000/svg">
<path fill-rule="evenodd" clip-rule="evenodd" d="M2.50646 27.5673C1.12791 27.5673 1.28656e-07 26.4394 1.19284e-07 25.0608L5.97072e-08 16.2978L6.30899 16.2978L6.30899 16.2882L10.101 16.2882C11.0785 16.2632 11.9057 15.411 11.9057 14.4084C11.9057 13.3807 11.0535 12.5285 10.0258 12.5285L5.01292 12.5285L5.01292 12.53L3.40912e-08 12.53L1.70405e-08 10.0221C7.66823e-09 8.64353 1.12791 7.51562 2.50646 7.51562L10.0258 7.51562C11.9307 7.51562 13.5599 8.19237 14.8884 9.54585C16.2418 10.8743 16.9186 12.5035 16.9186 14.4084C16.9186 16.2882 16.2669 17.9174 14.9385 19.2458C13.6101 20.5743 12.0059 21.2761 10.1261 21.3011L5.01292 21.3011L5.01292 25.0608C5.01292 26.4394 3.88501 27.5673 2.50646 27.5673Z" fill="#02BC6B"/>
<path fill-rule="evenodd" clip-rule="evenodd" d="M20.0779 4.60645C22.8471 7.29616 24.2425 10.646 24.2425 14.454C24.2425 18.198 22.9055 21.5448 20.1791 24.2429L16.3081 20.6008C18.0037 18.9228 18.836 16.9026 18.836 14.454C18.836 11.9868 17.9787 9.96969 16.2424 8.28327L20.0779 4.60645Z" fill="#02897A"/>
<path fill-rule="evenodd" clip-rule="evenodd" d="M26.0044 -2.51649e-08C29.9929 3.98225 32 8.91996 32 14.587C32 20.1656 30.0738 25.1003 26.1508 29.091L22.415 25.4408C25.3372 22.468 26.7691 18.8625 26.7691 14.587C26.7691 10.2687 25.2889 6.66621 22.303 3.68493L26.0044 -2.51649e-08Z" fill="#035B81"/>
<path fill-rule="evenodd" clip-rule="evenodd" d="M0 21.3223L5.01292 21.3223L5.01292 25.0611C5.01292 26.4397 3.88501 27.5676 2.50646 27.5676C1.12791 27.5676 3.47914e-08 26.4397 2.54192e-08 25.0611L0 21.3223Z" fill="#028E37"/>
</svg>
